<?xml version="1.0" standalone="yes"?>
<svg xmlns="http://www.w3.org/2000/svg" width="16" height="16">
<path style="fill:#b87332; stroke:none;" d="M0 0L0 16L3 16L3 7C7.64372 7.00051 11.5909 6.51883 15 10C12.636 10.4825 12.4825 10.636 12 13L16 13L16 0L0 0z"/>
<path style="fill:#b16721; stroke:none;" d="M3 7L3 16L16 16L16 13L12 13C12.8993 10.8764 12.8764 10.8993 15 10C13.494 9.31696 12.6852 9.17411 11 9L11 14L15 14C13.1994 14.5618 11.8782 14.8241 10 15L10 8L14 8C10.5676 6.5597 6.70018 7 3 7z"/>
<path style="fill:#ffffff; stroke:none;" d="M4 8L4 12L8 12L8 14L4 14C5.76904 14.7789 7.03594 14.9124 9 15L9 11L5 11L5 9L9 9C7.23096 8.22106 5.96406 8.08759 4 8M10 8L10 15L15 15C13.494 14.317 12.6852 14.1741 11 14L11 9L15 9C13.231 8.22106 11.9641 8.08759 10 8z"/>
</svg>
